<?xml version="1.0" encoding="UTF-8"?>
<svg id="logosandtypes_com" data-name="logosandtypes com" xmlns="http://www.w3.org/2000/svg" viewBox="0 0 150 150">
  <defs>
    <style>
      .cls-1 {
        fill: #009dd1;
      }

      .cls-2 {
        fill: #81cee8;
      }

      .cls-3 {
        fill: #001a61;
      }

      .cls-4 {
        fill: none;
      }

      .cls-5 {
        fill: #41b6dd;
      }
    </style>
  </defs>
  <path id="Layer_3" data-name="Layer 3" class="cls-4" d="M0,0H150V150H0V0Z"/>
  <g>
    <path class="cls-1" d="M65.91,22.07c-12.11-12.11-31.64-12.11-43.75,0-19.55,19.39-5.28,52.88,21.8,52.87,0,0,30.92,0,30.92,0v-30.64c.14-7.98-2.85-16.1-8.98-22.23Z"/>
    <path class="cls-5" d="M127.76,65.82c12.11-12.11,12.11-31.64,0-43.75-19.44-19.57-52.95-5.26-52.87,21.95,0,0,0,30.92,0,30.92h30.5c8.12,0,16.25-2.99,22.37-9.12Z"/>
    <path class="cls-2" d="M22.16,83.92c-12.11,12.11-12.11,31.64,0,43.75,19.39,19.55,52.88,5.28,52.87-21.8,0,0,0-31.06,0-31.06h-30.64c-8.12,0-16.1,2.99-22.23,9.12Z"/>
    <g>
      <path class="cls-3" d="M102.11,137.93c-19.69,.48-36.82-17.16-36.34-36.77,0,0,0-59.85,0-59.85,0-5.13,4.13-9.26,9.26-9.26s9.26,4.13,9.26,9.26v59.85c-.21,9.85,8.15,18.41,17.96,18.24,15.83-.02,24.01-19.32,12.68-30.64-3.42-3.42-7.84-5.27-12.68-5.27-5.13,0-9.26-4.13-9.26-9.26s4.13-9.26,9.26-9.26c9.69,0,18.81,3.85,25.65,10.69,14.07,13.49,14.26,37.83,0,51.3-6.98,7.13-16.1,10.97-25.79,10.97Z"/>
      <path class="cls-3" d="M58.07,74.52c0,5.13-4.13,9.26-9.26,9.26s-9.26-4.13-9.26-9.26,4.13-9.26,9.26-9.26c5.13,.14,9.26,4.28,9.26,9.26Z"/>
    </g>
  </g>
</svg>